<?xml version="1.0" standalone="no"?>
<!DOCTYPE svg PUBLIC "-//W3C//DTD SVG 20010904//EN"
 "http://www.w3.org/TR/2001/REC-SVG-20010904/DTD/svg10.dtd">
<svg version="1.0" xmlns="http://www.w3.org/2000/svg"
 width="1000.000000pt" height="1000.000000pt" viewBox="0 0 1000.000000 1000.000000"
 preserveAspectRatio="xMidYMid meet">
<metadata>
Created by potrace 1.14, written by Peter Selinger 2001-2017
</metadata>
<g transform="translate(0.000000,1000.000000) scale(0.100000,-0.100000)"
fill="#000000" stroke="none">
<path d="M4949 8659 c-7 -13 -35 -68 -61 -121 -27 -56 -54 -99 -63 -99 -8 -1
-18 -2 -22 -3 -5 -1 -39 -6 -78 -11 -38 -5 -73 -9 -77 -11 -5 -1 -23 -2 -40
-3 l-33 -1 92 -93 c51 -50 95 -95 98 -98 5 -5 -28 -197 -41 -242 -4 -14 22 -4
112 42 65 34 122 61 126 61 4 0 58 -27 119 -60 l112 -60 -6 43 c-3 23 -8 51
-10 62 -7 33 -20 119 -21 138 -1 11 40 59 93 111 l93 93 -108 12 c-165 19
-148 8 -213 144 -56 116 -59 120 -72 96z"/>
<path d="M4090 8323 c-26 -51 -51 -88 -60 -88 -44 -1 -160 -18 -160 -23 0 -4
29 -34 64 -68 68 -66 66 -60 51 -141 -15 -76 -17 -105 -7 -102 6 2 44 22 84
43 l74 40 77 -42 c42 -23 79 -42 82 -42 5 0 4 12 -16 124 l-10 59 67 66 68 66
-44 6 c-25 4 -65 9 -89 13 -25 3 -49 10 -54 15 -5 5 -25 43 -46 86 l-37 77
-44 -89z"/>
<path d="M5745 8327 c-21 -45 -39 -83 -40 -84 0 -1 -21 -5 -47 -8 -25 -4 -68
-9 -94 -13 l-49 -7 68 -66 68 -65 -15 -89 c-9 -49 -14 -90 -12 -92 2 -3 39 15
81 38 l78 42 75 -39 c41 -21 80 -41 85 -43 6 -2 7 12 2 40 -4 24 -9 57 -11 74
-2 16 -7 37 -9 46 -4 11 17 38 62 82 37 37 65 68 63 70 -3 3 -32 8 -65 12 -67
8 -96 12 -108 14 -4 0 -25 38 -47 83 -22 45 -42 83 -43 85 -2 1 -21 -34 -42
-80z"/>
<path d="M3436 8136 l-25 -53 -63 -7 -62 -7 47 -46 c30 -28 46 -51 43 -62 -2
-9 -8 -36 -11 -60 l-7 -44 55 30 56 30 50 -28 51 -29 -1 32 c-1 18 -4 46 -8
63 -5 25 0 34 37 69 23 21 41 40 39 42 -1 1 -25 6 -52 9 -61 8 -70 15 -95 71
-10 24 -21 44 -24 44 -2 0 -16 -24 -30 -54z"/>
<path d="M6428 8140 c-13 -29 -31 -52 -43 -55 -28 -7 -67 -13 -90 -14 -16 -1
-11 -9 26 -48 40 -42 45 -52 38 -78 -3 -16 -7 -42 -8 -58 l-1 -27 51 29 50 28
55 -29 55 -30 -7 49 c-3 26 -8 52 -11 56 -3 5 16 30 42 57 l47 47 -54 7 c-67
9 -71 11 -97 69 -12 26 -23 47 -25 47 -3 0 -15 -22 -28 -50z"/>
<path d="M4737 7714 c-1 -1 -94 -4 -207 -8 -113 -4 -227 -8 -255 -11 -27 -2
-93 -7 -145 -10 -98 -7 -107 -8 -225 -20 -38 -3 -90 -8 -115 -11 -25 -2 -61
-6 -80 -9 -19 -3 -53 -7 -75 -10 -103 -12 -134 -16 -190 -26 -33 -5 -88 -14
-123 -19 -34 -6 -81 -14 -105 -19 -23 -5 -58 -12 -77 -15 -137 -21 -565 -130
-701 -178 -49 -18 -64 -28 -65 -43 0 -11 -3 -47 -8 -80 -4 -33 -9 -80 -12
-105 -3 -25 -7 -61 -9 -80 -3 -19 -8 -62 -11 -95 -3 -33 -6 -61 -7 -62 -2 -1
-16 -4 -32 -7 -166 -31 -685 -164 -685 -175 0 -4 27 -87 59 -184 41 -122 56
-179 48 -182 -7 -2 -41 -11 -77 -19 -354 -82 -456 -109 -635 -166 -119 -38
-259 -100 -248 -110 4 -4 49 -19 98 -34 50 -14 104 -31 120 -36 17 -5 120 -37
230 -70 364 -111 395 -121 395 -130 0 -20 -260 -451 -372 -618 -60 -89 -69
-108 -42 -94 79 41 611 200 794 236 33 6 119 24 150 31 14 3 39 7 55 10 17 3
42 8 57 11 l28 6 1 -74 c2 -176 25 -510 49 -698 5 -41 12 -93 14 -115 3 -22 7
-49 9 -60 6 -26 16 -90 22 -135 5 -40 5 -36 40 -195 26 -115 95 -338 129 -418
132 -307 220 -412 652 -778 189 -161 254 -214 434 -360 96 -77 184 -148 195
-158 11 -9 54 -43 95 -76 41 -33 82 -65 90 -72 45 -37 453 -358 606 -476 99
-76 193 -149 209 -162 170 -132 158 -125 183 -109 18 12 391 299 442 341 8 7
116 91 240 188 124 97 234 184 245 193 11 9 65 53 120 96 252 201 730 594 791
651 12 11 48 43 80 70 60 51 181 163 243 225 152 153 294 448 382 795 32 123
34 135 45 195 4 19 8 44 10 55 21 116 30 170 39 235 3 25 8 56 10 70 3 14 7
54 10 90 3 36 8 76 10 90 2 14 7 61 10 105 3 44 8 105 10 135 3 30 7 116 10
190 4 74 8 136 10 138 3 4 50 -3 160 -24 30 -5 237 -51 265 -58 8 -2 44 -11
80 -19 135 -32 470 -139 604 -192 11 -5 -14 41 -67 121 -136 207 -332 532
-352 586 -5 14 13 22 112 53 65 20 174 54 243 75 122 38 207 63 400 119 93 27
94 28 70 44 -81 52 -303 126 -625 205 -132 33 -270 65 -307 72 -38 8 -68 18
-68 23 0 6 29 107 65 225 67 220 68 230 25 233 -8 0 -22 2 -30 4 -81 16 -335
65 -370 70 -53 9 -54 9 -145 24 -38 7 -79 14 -91 16 -19 4 -22 14 -28 92 -4
49 -9 102 -10 118 -6 55 -20 190 -20 197 -2 13 -14 18 -97 43 -182 55 -478
126 -662 159 -15 3 -35 7 -45 10 -9 3 -35 7 -57 11 -22 3 -65 10 -95 15 -30 5
-73 12 -95 15 -23 3 -50 7 -60 9 -11 2 -63 9 -115 16 -52 6 -106 13 -120 16
-14 2 -72 8 -130 14 -58 6 -123 13 -145 15 -54 6 -154 14 -245 21 -41 2 -102
7 -135 9 -151 11 -868 27 -878 19z"/>
</g>
</svg>
